<?xml version="1.0" standalone="no"?>
<!DOCTYPE svg PUBLIC "-//W3C//DTD SVG 20010904//EN"
 "http://www.w3.org/TR/2001/REC-SVG-20010904/DTD/svg10.dtd">
<svg version="1.0" xmlns="http://www.w3.org/2000/svg"
 width="512.000000pt" height="512.000000pt" viewBox="0 0 512.000000 512.000000"
 preserveAspectRatio="xMidYMid meet">

<g transform="translate(0.000000,512.000000) scale(0.100000,-0.100000)"
fill="#000000" stroke="none">
<path d="M2405 5109 c-611 -34 -1207 -303 -1653 -748 -277 -276 -492 -624
-616 -1001 -92 -279 -127 -496 -127 -795 0 -432 85 -788 281 -1173 248 -489
644 -877 1145 -1122 193 -95 310 -139 492 -185 412 -103 840 -105 1252 -4 417
102 831 330 1146 631 425 406 692 934 771 1528 22 168 22 483 0 645 -121 868
-636 1585 -1411 1966 -400 197 -829 283 -1280 258z m372 -1724 c377 -50 704
-214 978 -490 290 -293 448 -654 480 -1092 l5 -83 -249 0 -248 0 -7 31 c-3 17
-6 49 -6 71 0 58 -36 225 -65 302 -110 292 -314 518 -589 651 -139 67 -252
100 -401 115 -411 43 -829 -146 -1069 -484 -127 -177 -216 -426 -216 -601 0
-92 20 -85 -262 -85 l-250 0 7 93 c30 406 163 727 429 1031 354 404 917 612
1463 541z"/>
</g>
</svg>
